<svg width="200" height="202" viewBox="0 0 200 202" fill="none" xmlns="http://www.w3.org/2000/svg">
<path d="M75.0008 82.0625C75.0008 75.0911 69.4228 69.4375 62.5447 69.4375H56.3167C42.5566 69.4375 31.4045 80.7408 31.4045 94.6875V113.625C31.4045 127.572 42.5566 138.875 56.3167 138.875H62.5447C69.4228 138.875 75.0008 133.221 75.0008 126.25V82.0625ZM143.509 138.875C157.27 138.875 168.422 127.572 168.422 113.625V94.6875C168.422 80.7408 157.27 69.4375 143.509 69.4375H137.281C130.403 69.4375 124.825 75.0911 124.825 82.0625V126.25C124.825 133.221 130.403 138.875 137.281 138.875H143.509ZM99.9131 0C44.3199 0 2.047 46.8821 0.264221 101V107.312C0.264221 110.8 3.05127 113.625 6.49227 113.625H12.7203C16.1613 113.625 18.9484 110.8 18.9484 107.312V101C18.9484 55.7512 55.2696 18.9375 99.9131 18.9375C144.557 18.9375 180.878 55.7512 180.878 101H180.831C180.862 101.959 180.878 166.382 180.878 166.382C180.878 175.594 173.509 183.062 164.42 183.062H124.825C124.825 172.603 116.46 164.125 106.141 164.125H93.685C83.3659 164.125 75.0008 172.603 75.0008 183.062C75.0008 193.522 83.3659 202 93.685 202H164.42C183.828 202 199.562 186.053 199.562 166.382V101C197.779 46.8821 155.506 0 99.9131 0Z" fill="#F6F6F6"/>
</svg>
