<svg width="264" height="130" viewBox="0 0 264 130" fill="none" xmlns="http://www.w3.org/2000/svg">
<path d="M197.915 6.6319e-07H66.1466C55.286 -0.00153011 44.5935 2.64694 35.0211 7.70963C25.4487 12.7723 17.2934 20.0921 11.2812 29.0174C5.26901 37.9426 1.58652 48.1964 0.561578 58.8657C-0.463369 69.5351 1.20103 80.289 5.4066 90.1701C9.61217 100.051 16.2284 108.753 24.6663 115.5C33.1042 122.248 43.1018 126.832 53.7693 128.844C64.4367 130.856 75.4428 130.234 85.8078 127.034C96.1728 123.834 105.575 118.154 113.177 110.5H150.855C158.456 118.153 167.857 123.832 178.221 127.033C188.585 130.234 199.59 130.856 210.256 128.845C220.922 126.834 230.92 122.252 239.358 115.507C247.796 108.762 254.413 100.062 258.62 90.1832C262.827 80.3042 264.494 69.5519 263.472 58.8834C262.451 48.215 258.772 37.9613 252.763 29.0351C246.755 20.1089 238.603 12.7871 229.033 7.72139C219.464 2.65565 208.774 0.00315867 197.915 6.6319e-07ZM102.375 69.875C102.375 71.1679 101.854 72.4079 100.928 73.3222C100.001 74.2364 98.7448 74.75 97.4346 74.75H76.027V95.875C76.027 97.1679 75.5065 98.4079 74.58 99.3222C73.6536 100.236 72.397 100.75 71.0868 100.75H61.2064C59.8961 100.75 58.6396 100.236 57.7131 99.3222C56.7866 98.4079 56.2661 97.1679 56.2661 95.875V74.75H34.8585C33.5483 74.75 32.2917 74.2364 31.3653 73.3222C30.4388 72.4079 29.9183 71.1679 29.9183 69.875V60.125C29.9183 58.8321 30.4388 57.5921 31.3653 56.6779C32.2917 55.7636 33.5483 55.25 34.8585 55.25H56.2661V34.125C56.2661 32.8321 56.7866 31.5921 57.7131 30.6779C58.6396 29.7636 59.8961 29.25 61.2064 29.25H71.0868C72.397 29.25 73.6536 29.7636 74.58 30.6779C75.5065 31.5921 76.027 32.8321 76.027 34.125V55.25H97.4346C98.7448 55.25 100.001 55.7636 100.928 56.6779C101.854 57.5921 102.375 58.8321 102.375 60.125V69.875ZM191.299 100.75C188.042 100.75 184.858 99.797 182.15 98.0114C179.442 96.2258 177.331 93.6879 176.085 90.7186C174.838 87.7493 174.512 84.482 175.148 81.3298C175.783 78.1776 177.352 75.2821 179.655 73.0095C181.958 70.7369 184.892 69.1892 188.086 68.5622C191.28 67.9352 194.592 68.257 197.601 69.487C200.61 70.7169 203.181 72.7997 204.991 75.472C206.8 78.1443 207.766 81.2861 207.766 84.5C207.766 88.8098 206.031 92.943 202.943 95.9905C199.855 99.0379 195.666 100.75 191.299 100.75ZM217.647 61.75C214.39 61.75 211.206 60.797 208.498 59.0114C205.79 57.2258 203.679 54.6879 202.433 51.7186C201.186 48.7493 200.86 45.482 201.496 42.3298C202.131 39.1776 203.699 36.2821 206.002 34.0095C208.305 31.7369 211.24 30.1892 214.434 29.5622C217.628 28.9352 220.939 29.257 223.948 30.487C226.957 31.7169 229.529 33.7997 231.339 36.472C233.148 39.1443 234.114 42.2861 234.114 45.5C234.114 49.8098 232.379 53.943 229.291 56.9905C226.203 60.038 222.014 61.75 217.647 61.75Z" fill="#F6F6F6"/>
</svg>
